<?xml version="1.0" standalone="no"?>
<!DOCTYPE svg PUBLIC "-//W3C//DTD SVG 20010904//EN"
 "http://www.w3.org/TR/2001/REC-SVG-20010904/DTD/svg10.dtd">
<svg version="1.0" xmlns="http://www.w3.org/2000/svg"
 width="906.000000pt" height="906.000000pt" viewBox="0 0 906.000000 906.000000"
 preserveAspectRatio="xMidYMid meet">
<metadata>
Created by potrace 1.14, written by Peter Selinger 2001-2017
</metadata>
<g transform="translate(0.000000,906.000000) scale(0.100000,-0.100000)"
fill="#000000" stroke="none">
<path d="M7266 7743 c-8 -38 -17 -81 -20 -98 -3 -16 -15 -73 -26 -125 -11 -52
-23 -108 -26 -125 -3 -16 -16 -84 -29 -150 -13 -66 -26 -132 -29 -148 -3 -15
-7 -35 -10 -45 -3 -9 -8 -31 -10 -47 -4 -26 -11 -66 -31 -165 -3 -14 -8 -38
-11 -55 -2 -16 -13 -73 -24 -125 -10 -52 -21 -106 -24 -120 -5 -31 -33 -176
-41 -210 -3 -14 -16 -86 -30 -160 -14 -74 -41 -214 -60 -310 -19 -96 -37 -188
-40 -205 -2 -16 -7 -41 -10 -55 -3 -14 -8 -40 -11 -59 -3 -18 -8 -42 -10 -52
-2 -11 -6 -29 -9 -41 -3 -13 -25 -129 -49 -258 -53 -276 -50 -263 -70 -365 -9
-44 -16 -87 -16 -96 0 -13 77 -125 115 -165 5 -7 19 -24 30 -40 11 -15 74 -98
140 -184 66 -85 127 -165 135 -176 12 -18 98 -130 340 -444 116 -151 575 -750
588 -769 9 -13 22 -28 27 -35 6 -6 18 -21 27 -34 l16 -23 5 23 c3 13 29 127
57 253 27 127 59 268 70 315 11 47 21 96 24 110 2 14 11 54 20 90 8 36 27 119
42 185 14 66 27 127 29 135 2 8 11 49 20 90 20 93 17 79 53 240 17 74 33 146
36 160 2 14 27 126 55 250 28 124 53 236 55 250 3 14 21 97 41 185 20 88 45
198 55 245 10 47 46 209 80 360 34 151 64 285 66 297 2 12 24 111 49 220 24
109 47 213 50 232 3 19 8 37 10 41 2 4 7 20 10 37 7 43 62 294 81 373 9 36 18
79 20 95 3 17 9 43 14 59 21 61 26 58 -232 150 -134 48 -259 94 -278 101 -19
8 -118 44 -220 80 -102 36 -201 72 -220 79 -66 26 -431 159 -585 213 -38 13
-79 28 -90 33 -11 5 -38 14 -60 21 -22 7 -44 17 -49 21 -19 16 -25 7 -40 -59z"/>
<path d="M10 7658 c0 -19 300 -1180 520 -2014 40 -151 162 -616 210 -799 22
-82 56 -211 75 -285 35 -132 66 -248 147 -555 21 -82 41 -159 43 -169 3 -10 9
-33 14 -50 6 -17 31 -112 57 -211 26 -99 62 -238 81 -310 19 -71 36 -137 38
-145 3 -14 18 -70 60 -225 9 -33 18 -68 20 -77 6 -28 75 -287 96 -359 10 -36
19 -72 19 -80 0 -8 35 -35 78 -60 42 -25 250 -151 462 -279 212 -128 397 -240
412 -249 159 -95 215 -129 244 -146 19 -11 170 -102 336 -203 167 -101 304
-179 306 -174 1 5 -9 58 -23 118 -29 120 -40 167 -84 359 -89 384 -195 837
-226 965 -19 80 -39 168 -45 195 -7 28 -13 57 -15 65 -38 161 -76 327 -130
555 -36 154 -74 318 -85 365 -11 47 -49 211 -85 365 -72 305 -215 920 -220
946 -2 9 -15 65 -30 125 -15 60 -29 119 -31 131 -2 12 -16 71 -30 130 -14 60
-28 119 -30 133 -3 14 -7 33 -10 42 -3 9 -7 25 -9 35 -2 10 -31 135 -64 278
-34 143 -68 292 -77 330 -9 39 -27 113 -40 165 -12 52 -25 106 -28 120 -18 88
-38 174 -54 229 -17 64 -17 64 -67 82 -27 9 -131 47 -230 84 -99 36 -200 73
-225 82 -25 8 -58 21 -75 28 -25 11 -629 233 -885 325 -125 45 -304 111 -325
119 -87 36 -95 38 -95 19z"/>
<path d="M4045 6557 c-32 -67 -170 -347 -306 -622 -260 -529 -480 -974 -636
-1293 l-94 -192 71 -283 c39 -155 73 -289 75 -297 2 -8 13 -53 25 -100 12 -47
23 -92 25 -100 2 -8 13 -51 25 -95 12 -44 23 -87 25 -95 3 -15 88 -345 126
-490 11 -41 40 -154 65 -250 25 -96 52 -198 60 -226 8 -28 16 -60 18 -70 4
-17 86 -331 104 -398 10 -38 10 -39 134 204 101 196 174 338 323 625 127 245
223 430 305 590 45 88 114 221 153 295 158 307 229 443 304 590 107 206 231
446 311 600 35 69 105 204 155 300 49 96 105 203 123 237 19 34 34 68 34 75 0
7 -37 43 -82 80 -46 36 -146 117 -223 179 -78 63 -174 141 -215 174 -41 33
-77 62 -80 65 -3 3 -75 62 -160 131 -349 281 -476 384 -488 394 -7 5 -18 15
-25 20 -7 6 -30 25 -53 42 l-40 32 -59 -122z"/>
<path d="M5822 5174 c-10 -21 -109 -212 -219 -424 -39 -74 -114 -219 -167
-322 -82 -157 -95 -190 -84 -202 7 -7 42 -45 78 -83 69 -73 328 -348 370 -393
69 -73 282 -299 310 -330 18 -19 90 -96 160 -170 71 -74 137 -145 147 -156 10
-12 79 -85 153 -164 74 -78 151 -159 170 -179 19 -21 94 -100 166 -177 72 -76
146 -155 164 -174 17 -19 91 -98 163 -174 73 -77 163 -172 200 -212 38 -40 77
-83 88 -95 11 -13 33 -24 51 -25 17 -1 50 -5 72 -8 125 -17 216 -24 220 -17 2
3 7 57 11 119 6 109 6 114 -18 145 -13 18 -26 37 -28 42 -2 6 -89 138 -193
295 -104 157 -282 425 -394 595 -113 171 -287 434 -387 585 -100 151 -255 385
-343 520 -89 135 -165 250 -170 255 -4 6 -22 33 -39 60 -18 28 -46 70 -63 95
-17 25 -45 68 -63 95 -17 28 -35 55 -39 60 -5 6 -71 107 -149 225 -78 118
-145 219 -149 224 -5 4 -13 0 -18 -10z"/>
</g>
</svg>
